# xmcd CD database file
#
# Track frame offsets:
#	150
#	18413
#	45929
#	66655
#	92857
#	113151
#	138172
#	161444
#	181012
#	199177
#	215610
#	232985
#
# Disc length: 3411 seconds
#
# Revision: 0
# Processed by: cddbd v1.4PL0 Copyright (c) Steve Scherf et al.
# Submitted via: CDex 1.50beta10
#
DISCID=9e0d510c
DTITLE=Paul Smith - Paul Smith
DYEAR=1998
DGENRE=Jazz
TTITLE0=Darn That Dream
TTITLE1=Gershwin Medley
TTITLE2=Misty
TTITLE3=Someone To Watch Over me
TTITLE4=It's All Right With Me
TTITLE5=There Will Never Be Another You
TTITLE6=Ain't She Sweet
TTITLE7=Give Me The Simple Life
TTITLE8=My Funny Valentine
TTITLE9=Pick Yourself Up
TTITLE10=When The World Was Young
TTITLE11=On Green Dolphin Street
EXTD=YEAR: 1998
EXTT0=
EXTT1=
EXTT2=
EXTT3=
EXTT4=
EXTT5=
EXTT6=
EXTT7=
EXTT8=
EXTT9=
EXTT10=
EXTT11=
PLAYORDER=
